<?xml version="1.0" encoding="utf-8"?>
<!-- Generator: Adobe Illustrator 24.1.2, SVG Export Plug-In . SVG Version: 6.00 Build 0)  -->
<svg version="1.1" id="Слой_1" xmlns="http://www.w3.org/2000/svg" xmlns:xlink="http://www.w3.org/1999/xlink" x="0px" y="0px"
	 viewBox="0 0 100 100" style="enable-background:new 0 0 100 100;" xml:space="preserve">
<style type="text/css">
	.st0{fill:#00F0FC;}
	.st1{fill:#FF9CD7;}
	.st2{fill:none;}
	.st3{font-family:'MVBoli';}
	.st4{font-size:14px;}
	.st5{font-size:6px;}
</style>
<g id="Слой_1_1_">
	<g>
		<path class="st0" d="M50,25.6c3.8,0,7.1,2.2,8.8,5.3h1.4c-1.8-3.9-5.7-6.5-10.2-6.5s-8.4,2.7-10.2,6.5h1.4
			C42.8,27.7,46.2,25.6,50,25.6"/>
		<path class="st0" d="M60.7,39.1c0.3,0,0.5-0.2,0.5-0.5v-0.4V33v-0.4c0-0.3-0.2-0.5-0.5-0.5h-2c-0.3,0-0.5,0.2-0.5,0.5v6
			c0,0.3,0.2,0.5,0.5,0.5h0.7l0,0c-1.3,3.4-4.3,5.9-8,6.5l0,0c0-0.2-0.1-0.3-0.3-0.3h-2.2c-0.2,0-0.3,0.1-0.3,0.3V47
			c0,0.2,0.1,0.3,0.3,0.3h2.2c0.2,0,0.3-0.1,0.3-0.3v-0.2C55.8,46.3,59.4,43.2,60.7,39.1z"/>
		<path class="st0" d="M38.8,33v5.2v0.4c0,0.3,0.2,0.5,0.5,0.5h2c0.3,0,0.5-0.2,0.5-0.5v-6c0-0.3-0.2-0.5-0.5-0.5h-2
			c-0.3,0-0.5,0.2-0.5,0.5V33z"/>
		<path class="st1" d="M36.3,33c-0.2,0-0.3,0.1-0.3,0.3V38c0,0.2,0.1,0.3,0.3,0.3h1.2V33H36.3z"/>
		<path class="st1" d="M63.7,38.2c0.2,0,0.3-0.1,0.3-0.3v-4.7c0-0.2-0.1-0.3-0.3-0.3h-1.2v5.2L63.7,38.2L63.7,38.2z"/>
		<path class="st0" d="M50,7C26.3,7,7,26.3,7,50s19.2,43,43,43s43-19.2,43-43S73.7,7,50,7 M50,8.3c5.6,0,11.1,1.1,16.2,3.3
			c5,2.1,9.4,5.1,13.2,8.9c3.8,3.8,6.8,8.3,8.9,13.2c2.2,5.1,3.3,10.6,3.3,16.2S90.5,61,88.3,66.1c-2.1,5-5.1,9.4-8.9,13.2
			c-3.8,3.8-8.3,6.8-13.2,8.9c-5.1,2.2-10.6,3.3-16.2,3.3s-11.1-1.1-16.2-3.3c-5-2.1-9.4-5.1-13.2-8.9s-6.8-8.3-8.9-13.2
			c-2.3-5-3.4-10.5-3.4-16.1s1.1-11.1,3.3-16.2c2.1-5,5.1-9.4,8.9-13.2s8.3-6.8,13.2-8.9C38.9,9.4,44.4,8.3,50,8.3"/>
	</g>
</g>
<rect x="22.4" y="57.9" class="st2" width="57.7" height="13.3"/>
<text transform="matrix(1 0 0 1 22.4001 66.9614)" class="st0 st3 st4">MiWorld</text>
<rect x="31.4" y="73.9" class="st2" width="38.3" height="7.3"/>
<rect x="34.4" y="73.3" class="st2" width="34.4" height="9.3"/>
<text transform="matrix(1 0 0 1 34.3891 77.8547)" class="st3 st5">Cyber club</text>
</svg>
